<svg width="24" height="24" version="1.1" viewBox="0 0 6.35 6.35" xmlns="http://www.w3.org/2000/svg" xmlns:xlink="http://www.w3.org/1999/xlink">
  <path d="m2.8898 3.0194q0.12594 0.29633 0.51858 0.29633 0.4445 0 0.7112-0.4445 0.18521-0.30374 0.18521-0.77047 0-0.68897-0.36301-1.0075-0.27411-0.23707-0.69638-0.23707-0.096308 0-0.20002 0.014817l-0.49636 0.074083v4.3487q0 0.20002 0.14076 0.33337t0.33337 0.13335h0.096308v0.074083h-2.2521v-0.074083h0.096308q0.19262 0 0.32597-0.13335 0.14076-0.13335 0.14817-0.33337v-3.9486q-0.0074083-0.19262-0.11853-0.30374-0.10372-0.11112-0.31115-0.11112-0.051858 0-0.13335 0.007408l-0.014817-0.066675q0.62971-0.051858 1.3187-0.17039 0.69638-0.12594 0.91122-0.15557 0.22225-0.029633 0.4445-0.029633 0.22966 0 0.54822 0.051858 0.31856 0.04445 0.65193 0.21484 0.33337 0.16298 0.54081 0.48895 0.21484 0.3556 0.21484 0.80751 0 0.4445-0.16298 0.78528-0.31115 0.65193-1.0668 0.82973-0.18521 0.04445-0.3556 0.04445-0.16298 0-0.31115-0.029633-0.30374-0.04445-0.51117-0.20743-0.20743-0.16298-0.25929-0.45191z" fill="#000"/>
</svg>
